<?xml version="1.0" encoding="UTF-8"?>
<svg id="Layer_1" data-name="Layer 1" xmlns="http://www.w3.org/2000/svg" viewBox="0 0 151.79 194.86">
  <defs>
    <style>
      .cls-1 {
        fill: #f15b29;
      }

      .cls-2 {
        fill: #2a3990;
      }
    </style>
  </defs>
  <path class="cls-1" d="M54.08,45.1c16.05,9.17,34.47,27.54,43.62,43.62-16.07-9.14-34.44-27.56-43.62-43.62h0Z"/>
  <path class="cls-1" d="M54.08,88.72c9.17-16.05,27.54-34.47,43.62-43.62-9.14,16.07-27.56,34.44-43.62,43.62h0Z"/>
  <g>
    <path class="cls-2" d="M13.22,185.81c-1.81,0-3.47-.32-4.98-.95-1.51-.64-2.8-1.54-3.86-2.71-1.06-1.17-1.79-2.58-2.18-4.22l5.89-1.27c.37,1.16,1.01,2.06,1.93,2.71.92.65,2.01.98,3.29.98.9,0,1.7-.16,2.4-.49.69-.32,1.23-.77,1.61-1.33s.57-1.22.57-1.95c0-.93-.35-1.69-1.06-2.27-.71-.58-1.85-1.05-3.44-1.42l-1.36-.3c-3.11-.68-5.4-1.77-6.87-3.29-1.47-1.51-2.21-3.36-2.21-5.53,0-1.36.27-2.6.81-3.73.54-1.13,1.28-2.11,2.23-2.95s2.06-1.48,3.33-1.95c1.27-.47,2.64-.7,4.11-.7,1.67,0,3.22.31,4.66.93,1.44.62,2.66,1.51,3.65,2.67.99,1.16,1.65,2.53,1.99,4.11l-5.81,1.27c-.34-1.13-.93-2-1.76-2.61-.83-.61-1.8-.91-2.9-.91-.76,0-1.45.15-2.06.45-.61.3-1.09.71-1.44,1.23-.35.52-.53,1.11-.53,1.76,0,.99.38,1.75,1.15,2.27.76.52,1.89.95,3.39,1.29l1.36.3c3.08.68,5.37,1.75,6.85,3.22s2.23,3.35,2.23,5.64c0,1.44-.28,2.76-.83,3.94-.55,1.19-1.32,2.22-2.31,3.1-.99.88-2.15,1.55-3.48,2.01-1.33.47-2.79.7-4.37.7Z"/>
    <path class="cls-2" d="M26.79,185.17v-31.63h5.81v18.36l8.31-9.12h6.96l-9.33,9.92,10.35,12.47h-7.51l-8.78-11.15v11.15h-5.81Z"/>
    <path class="cls-2" d="M56.73,156.72c0,.65-.15,1.23-.45,1.74s-.71.91-1.23,1.21-1.1.45-1.72.45-1.2-.15-1.72-.45c-.52-.3-.93-.7-1.23-1.21s-.45-1.09-.45-1.74.15-1.23.45-1.74.71-.91,1.23-1.21c.52-.3,1.09-.45,1.72-.45s1.19.15,1.72.45.93.7,1.23,1.21.45,1.09.45,1.74ZM50.37,185.17v-22.39h5.94v22.39h-5.94Z"/>
    <path class="cls-2" d="M59.99,193.4v-30.62h5.47l.17,3.27c.76-1.22,1.78-2.17,3.05-2.86,1.27-.69,2.67-1.04,4.2-1.04s2.83.3,4.07.89c1.24.59,2.33,1.42,3.27,2.48s1.66,2.3,2.18,3.71c.52,1.41.78,2.95.78,4.62s-.27,3.27-.8,4.71c-.54,1.44-1.29,2.71-2.25,3.8-.96,1.09-2.09,1.94-3.39,2.54-1.3.61-2.7.91-4.2.91-1.39,0-2.64-.28-3.77-.83-1.13-.55-2.08-1.32-2.84-2.31v10.73h-5.94ZM71.49,180.46c1.07,0,2.04-.28,2.88-.85s1.52-1.34,2.01-2.31c.49-.98.74-2.08.74-3.33s-.25-2.35-.74-3.33c-.5-.97-1.17-1.75-2.01-2.31s-1.81-.85-2.88-.85-2.04.28-2.88.85c-.85.57-1.52,1.34-2.01,2.31-.5.98-.74,2.09-.74,3.33s.25,2.35.74,3.33c.49.98,1.17,1.75,2.01,2.31.85.57,1.81.85,2.88.85Z"/>
    <path class="cls-2" d="M86.03,193.4v-30.62h5.47l.17,3.27c.76-1.22,1.78-2.17,3.05-2.86,1.27-.69,2.67-1.04,4.2-1.04s2.83.3,4.07.89c1.24.59,2.33,1.42,3.27,2.48.93,1.06,1.66,2.3,2.18,3.71.52,1.41.78,2.95.78,4.62s-.27,3.27-.81,4.71-1.29,2.71-2.25,3.8c-.96,1.09-2.09,1.94-3.39,2.54s-2.7.91-4.2.91c-1.39,0-2.64-.28-3.78-.83-1.13-.55-2.08-1.32-2.84-2.31v10.73h-5.94ZM97.52,180.46c1.07,0,2.04-.28,2.88-.85.85-.57,1.52-1.34,2.02-2.31.49-.98.74-2.08.74-3.33s-.25-2.35-.74-3.33c-.5-.97-1.17-1.75-2.02-2.31-.85-.57-1.81-.85-2.88-.85s-2.04.28-2.88.85-1.52,1.34-2.01,2.31c-.49.98-.74,2.09-.74,3.33s.25,2.35.74,3.33,1.17,1.75,2.01,2.31,1.81.85,2.88.85Z"/>
    <path class="cls-2" d="M122.88,185.81c-1.67,0-3.2-.29-4.6-.87-1.4-.58-2.61-1.4-3.63-2.46-1.02-1.06-1.81-2.32-2.37-3.77s-.85-3.05-.85-4.77.28-3.22.85-4.67,1.35-2.69,2.35-3.75c1-1.06,2.18-1.89,3.54-2.48,1.36-.59,2.83-.89,4.41-.89s3.13.28,4.47.85c1.34.57,2.5,1.37,3.46,2.42.96,1.05,1.7,2.29,2.23,3.73.52,1.44.78,3.05.78,4.83v1.48h-16.07c.25,1.67.86,2.98,1.82,3.92s2.18,1.42,3.65,1.42c1.02,0,1.94-.24,2.78-.72.83-.48,1.52-1.17,2.06-2.08l5.3,1.7c-.51,1.27-1.27,2.36-2.29,3.27-1.02.91-2.21,1.61-3.56,2.1s-2.8.74-4.33.74ZM122.58,166.72c-1.3,0-2.4.42-3.29,1.27-.89.85-1.48,2.01-1.76,3.48h9.88c-.23-1.47-.77-2.63-1.63-3.48-.86-.85-1.93-1.27-3.2-1.27Z"/>
    <path class="cls-2" d="M136.15,185.17v-22.39h5.47l.21,3.39c.56-1.19,1.33-2.1,2.29-2.74.96-.64,2.09-.95,3.39-.95.4,0,.79.04,1.19.11s.75.16,1.06.28l-.64,5.85c-.31-.11-.63-.19-.95-.23-.33-.04-.66-.06-1-.06-1.64,0-2.9.5-3.77,1.5-.88,1-1.31,2.42-1.31,4.26v10.98h-5.94Z"/>
  </g>
  <path class="cls-2" d="M75.89,22.84c2.86,14.6,3.52,29.3,3.61,44.08-.08,14.78-.74,29.48-3.61,44.08-2.88-14.6-3.54-29.3-3.61-44.08.09-14.78.75-29.48,3.61-44.08h0Z"/>
  <g>
    <polygon class="cls-2" points="76.02 0 78.02 12.49 74.02 12.49 76.02 0 76.02 0"/>
    <polygon class="cls-2" points="28.95 19.4 39.19 26.81 36.36 29.64 28.95 19.4 28.95 19.4"/>
    <polygon class="cls-2" points="9.37 66.4 21.86 64.4 21.86 68.4 9.37 66.4 9.37 66.4"/>
    <polygon class="cls-2" points="28.77 113.47 36.19 103.23 39.01 106.05 28.77 113.47 28.77 113.47"/>
    <polygon class="cls-2" points="75.77 133.04 73.77 120.55 77.77 120.55 75.77 133.04 75.77 133.04"/>
    <polygon class="cls-2" points="122.84 113.65 112.6 106.23 115.43 103.4 122.84 113.65 122.84 113.65"/>
    <polygon class="cls-2" points="142.42 66.65 129.93 68.65 129.93 64.65 142.42 66.65 142.42 66.65"/>
    <polygon class="cls-2" points="123.02 19.57 115.6 29.82 112.78 26.99 123.02 19.57 123.02 19.57"/>
    <polygon class="cls-2" points="50.55 5.02 57.18 15.79 53.49 17.32 50.55 5.02 50.55 5.02"/>
    <polygon class="cls-2" points="14.48 40.95 26.79 43.88 25.26 47.58 14.48 40.95 14.48 40.95"/>
    <polygon class="cls-2" points="14.39 91.86 25.16 85.24 26.69 88.93 14.39 91.86 14.39 91.86"/>
    <polygon class="cls-2" points="50.32 127.93 53.25 115.63 56.95 117.16 50.32 127.93 50.32 127.93"/>
    <polygon class="cls-2" points="101.24 128.03 94.61 117.25 98.3 115.72 101.24 128.03 101.24 128.03"/>
    <polygon class="cls-2" points="137.31 92.09 125 89.16 126.53 85.47 137.31 92.09 137.31 92.09"/>
    <polygon class="cls-2" points="137.4 41.18 126.63 47.81 125.1 44.11 137.4 41.18 137.4 41.18"/>
    <polygon class="cls-2" points="101.47 5.11 98.54 17.42 94.84 15.89 101.47 5.11 101.47 5.11"/>
  </g>
  <path class="cls-2" d="M31.82,66.91c14.6-2.86,29.3-3.52,44.08-3.61,14.78.08,29.48.74,44.08,3.61-14.6,2.87-29.3,3.54-44.08,3.61-14.78-.09-29.48-.75-44.08-3.61h0Z"/>
</svg>